<?xml version="1.0" encoding="UTF-8"?>
<svg id="b" data-name="Layer 2" xmlns="http://www.w3.org/2000/svg" xmlns:xlink="http://www.w3.org/1999/xlink" viewBox="0 0 92 34.47168">
  <defs>
    <clipPath id="e">
      <rect width="32.25" height="32.25" fill="none" stroke-width="0"/>
    </clipPath>
    <clipPath id="f">
      <rect width="32.25" height="32.25" fill="none" stroke-width="0"/>
    </clipPath>
  </defs>
  <g id="c" data-name="Layer 1" stroke="#3c3c3b">
    <g>
      <path stroke="none" fill="#3c3c3b" d="M43.55811,25.76367l4.28369-19.04004h7.33643l4.28369,19.04004h-3.86377l-.75635-3.44434h-6.66357l-.75635,3.44434h-3.86377ZM50.83789,9.91602l-1.93164,9.04395h5.20801l-1.93213-9.04395h-1.34424Z" />
      <path stroke="none" fill="#3c3c3b" d="M73.82617,25.45605c-1.979.42871-3.76172.64355-5.34814.64355-1.58691,0-2.85596-.19629-3.80811-.58789-.95166-.3916-1.69873-1.01758-2.23975-1.87598-.54199-.8584-.91504-1.86621-1.12012-3.02441-.20557-1.15723-.30811-2.61328-.30811-4.36719,0-3.67773.51807-6.23926,1.5542-7.68652,1.03564-1.44629,2.94434-2.16992,5.72607-2.16992,1.60498,0,3.4624.25195,5.57178.75586l-.11182,3.08008c-1.84814-.28027-3.38379-.41992-4.60596-.41992-1.22314,0-2.0957.16406-2.61816.49023-.52295.32617-.91016.94727-1.16211,1.86133-.25195.91504-.37793,2.47363-.37793,4.67676,0,2.20215.25635,3.72852.77002,4.57812.51318.84961,1.54004,1.27344,3.08008,1.27344s3.17773-.12988,4.91406-.3916l.08398,3.16406Z" />
      <path stroke="none" fill="#3c3c3b" d="M82.81396,9.74805c-2.03467,0-3.05176.67188-3.05176,2.01562,0,.59766.25195,1.05469.75586,1.37207s1.68457.77441,3.54199,1.37207,3.15918,1.27344,3.90625,2.03027c.74609.75586,1.11963,1.91797,1.11963,3.48535,0,1.99805-.60645,3.50977-1.81982,4.53613-1.21338,1.02734-2.7998,1.54004-4.75977,1.54004-1.45605,0-3.23926-.22363-5.34814-.67188l-1.0083-.19629.39209-2.99609c2.50146.33594,4.41455.50391,5.74023.50391,1.97852,0,2.96777-.82031,2.96777-2.46387,0-.59668-.22852-1.06348-.68604-1.39941s-1.36768-.7002-2.72998-1.09277c-2.16553-.61523-3.69141-1.34766-4.57764-2.19727-.88721-.84961-1.33008-2.03027-1.33008-3.54199,0-1.9043.57812-3.32227,1.73584-4.25586,1.15723-.93359,2.74414-1.40039,4.76025-1.40039,1.38086,0,3.13574.18652,5.26367.55957l1.0083.19629-.30811,3.05176c-2.63232-.29785-4.48975-.44727-5.57227-.44727Z" />
    </g>
    <g id="d" data-name="UbiLogo">
      <g clip-path="url(#e)">
        <g clip-path="url(#f)">
          <path d="M4.82323,6.69719c2.64804,0,4.79469,4.16939,4.79469,9.31283s-2.14665,9.31283-4.79469,9.31283S.02854,21.15347.02854,16.01003,2.17519,6.69719,4.82323,6.69719" fill="#da8600" stroke-width="0"/>
          <ellipse cx="4.82323" cy="16.01003" rx="4.79469" ry="9.31283" fill="none" stroke="#666" stroke-miterlimit="10" stroke-width=".05728"/>
          <path d="M16.35332,22.5635c5.10703,0,9.2469,2.16196,9.2469,4.82888s-4.13987,4.82888-9.2469,4.82888-9.2469-2.16196-9.2469-4.82888,4.13987-4.82888,9.2469-4.82888" fill="#da8600" stroke-width="0"/>
          <ellipse cx="16.35332" cy="27.39238" rx="9.2469" ry="4.82888" fill="none" stroke="#666" stroke-miterlimit="10" stroke-width=".05728"/>
          <path d="M27.42677,6.69719c2.64804,0,4.79469,4.16939,4.79469,9.31283s-2.14665,9.31283-4.79469,9.31283-4.79469-4.16939-4.79469-9.31283,2.14665-9.31283,4.79469-9.31283" fill="#da8600" stroke-width="0"/>
          <ellipse cx="27.42677" cy="16.01003" rx="4.79469" ry="9.31283" fill="none" stroke="#666" stroke-miterlimit="10" stroke-width=".05728"/>
          <path d="M16.35332.02874C21.46035.02874,25.60022,2.1907,25.60022,4.85762s-4.13987,4.82888-9.2469,4.82888S7.10642,7.52454,7.10642,4.85762,11.24629.02874,16.35332.02874" fill="#da8600" stroke-width="0"/>
          <ellipse cx="16.35332" cy="4.85762" rx="9.2469" ry="4.82888" fill="none" stroke="#666" stroke-miterlimit="10" stroke-width=".05728"/>
        </g>
      </g>
    </g>
  </g>
</svg>